<svg width="16" height="16" viewBox="0 0 16 16" fill="none" xmlns="http://www.w3.org/2000/svg">
<path d="M4.25 12.375C4.25 12.7065 4.3817 13.0245 4.61612 13.2589C4.85054 13.4933 5.16848 13.625 5.5 13.625H10.5C10.8315 13.625 11.1495 13.4933 11.3839 13.2589C11.6183 13.0245 11.75 12.7065 11.75 12.375V5.3875C11.75 5.27704 11.6605 5.1875 11.55 5.1875H4.45C4.33954 5.1875 4.25 5.27704 4.25 5.3875V12.375Z" fill="#1A191D"/>
<path d="M12.375 3.625C12.375 3.27982 12.0952 3 11.75 3H10.2703C10.2173 3 10.1664 2.97893 10.1289 2.94142L9.62108 2.43358C9.58357 2.39607 9.5327 2.375 9.47966 2.375H6.52034C6.4673 2.375 6.41643 2.39607 6.37892 2.43358L5.87108 2.94142C5.83357 2.97893 5.7827 3 5.72966 3H4.25C3.90482 3 3.625 3.27982 3.625 3.625V3.625C3.625 3.97018 3.90482 4.25 4.25 4.25H8H10.1875H11.75C12.0952 4.25 12.375 3.97018 12.375 3.625V3.625Z" fill="#1A191D"/>
</svg>
