<svg width="278" height="142" viewBox="0 0 278 142" fill="none" xmlns="http://www.w3.org/2000/svg">
<path fill-rule="evenodd" clip-rule="evenodd" d="M7 1.5C3.96243 1.5 1.5 3.96244 1.5 7V13.4C1.5 13.6761 1.27614 13.9 1 13.9C0.723858 13.9 0.5 13.6761 0.5 13.4V7C0.5 3.41015 3.41015 0.5 7 0.5H14.3333C14.6095 0.5 14.8333 0.723858 14.8333 1C14.8333 1.27614 14.6095 1.5 14.3333 1.5H7ZM28.5 1C28.5 0.723858 28.7239 0.5 29 0.5H43.6667C43.9428 0.5 44.1667 0.723858 44.1667 1C44.1667 1.27614 43.9428 1.5 43.6667 1.5H29C28.7239 1.5 28.5 1.27614 28.5 1ZM57.8333 1C57.8333 0.723858 58.0572 0.5 58.3333 0.5H73C73.2761 0.5 73.5 0.723858 73.5 1C73.5 1.27614 73.2761 1.5 73 1.5H58.3333C58.0572 1.5 57.8333 1.27614 57.8333 1ZM87.1667 1C87.1667 0.723858 87.3905 0.5 87.6667 0.5H102.333C102.609 0.5 102.833 0.723858 102.833 1C102.833 1.27614 102.609 1.5 102.333 1.5H87.6667C87.3905 1.5 87.1667 1.27614 87.1667 1ZM116.5 1C116.5 0.723858 116.724 0.5 117 0.5H131.667C131.943 0.5 132.167 0.723858 132.167 1C132.167 1.27614 131.943 1.5 131.667 1.5H117C116.724 1.5 116.5 1.27614 116.5 1ZM145.833 1C145.833 0.723858 146.057 0.5 146.333 0.5H161C161.276 0.5 161.5 0.723858 161.5 1C161.5 1.27614 161.276 1.5 161 1.5H146.333C146.057 1.5 145.833 1.27614 145.833 1ZM175.167 1C175.167 0.723858 175.391 0.5 175.667 0.5H190.333C190.609 0.5 190.833 0.723858 190.833 1C190.833 1.27614 190.609 1.5 190.333 1.5H175.667C175.391 1.5 175.167 1.27614 175.167 1ZM204.5 1C204.5 0.723858 204.724 0.5 205 0.5H219.667C219.943 0.5 220.167 0.723858 220.167 1C220.167 1.27614 219.943 1.5 219.667 1.5H205C204.724 1.5 204.5 1.27614 204.5 1ZM233.833 1C233.833 0.723858 234.057 0.5 234.333 0.5H249C249.276 0.5 249.5 0.723858 249.5 1C249.5 1.27614 249.276 1.5 249 1.5H234.333C234.057 1.5 233.833 1.27614 233.833 1ZM263.167 1C263.167 0.723858 263.391 0.5 263.667 0.5H271C274.59 0.5 277.5 3.41015 277.5 7V13.4C277.5 13.6761 277.276 13.9 277 13.9C276.724 13.9 276.5 13.6761 276.5 13.4V7C276.5 3.96243 274.038 1.5 271 1.5H263.667C263.391 1.5 263.167 1.27614 263.167 1ZM1 25.7C1.27614 25.7 1.5 25.9239 1.5 26.2V39C1.5 39.2761 1.27614 39.5 1 39.5C0.723858 39.5 0.5 39.2761 0.5 39V26.2C0.5 25.9239 0.723858 25.7 1 25.7ZM277 25.7C277.276 25.7 277.5 25.9239 277.5 26.2V39C277.5 39.2761 277.276 39.5 277 39.5C276.724 39.5 276.5 39.2761 276.5 39V26.2C276.5 25.9239 276.724 25.7 277 25.7ZM1 51.3C1.27614 51.3 1.5 51.5239 1.5 51.8V64.6C1.5 64.8761 1.27614 65.1 1 65.1C0.723858 65.1 0.5 64.8761 0.5 64.6V51.8C0.5 51.5239 0.723858 51.3 1 51.3ZM277 51.3C277.276 51.3 277.5 51.5239 277.5 51.8V64.6C277.5 64.8761 277.276 65.1 277 65.1C276.724 65.1 276.5 64.8761 276.5 64.6V51.8C276.5 51.5239 276.724 51.3 277 51.3ZM1 76.9C1.27614 76.9 1.5 77.1239 1.5 77.4V90.2C1.5 90.4761 1.27614 90.7 1 90.7C0.723858 90.7 0.5 90.4761 0.5 90.2V77.4C0.5 77.1239 0.723858 76.9 1 76.9ZM277 76.9C277.276 76.9 277.5 77.1239 277.5 77.4V90.2C277.5 90.4761 277.276 90.7 277 90.7C276.724 90.7 276.5 90.4761 276.5 90.2V77.4C276.5 77.1239 276.724 76.9 277 76.9ZM1 102.5C1.27614 102.5 1.5 102.724 1.5 103V115.8C1.5 116.076 1.27614 116.3 1 116.3C0.723858 116.3 0.5 116.076 0.5 115.8V103C0.5 102.724 0.723858 102.5 1 102.5ZM277 102.5C277.276 102.5 277.5 102.724 277.5 103V115.8C277.5 116.076 277.276 116.3 277 116.3C276.724 116.3 276.5 116.076 276.5 115.8V103C276.5 102.724 276.724 102.5 277 102.5ZM1 128.1C1.27614 128.1 1.5 128.324 1.5 128.6V135C1.5 138.038 3.96243 140.5 7 140.5H14.3333C14.6094 140.5 14.8333 140.724 14.8333 141C14.8333 141.276 14.6094 141.5 14.3333 141.5H7C3.41015 141.5 0.5 138.59 0.5 135V128.6C0.5 128.324 0.723858 128.1 1 128.1ZM277 128.1C277.276 128.1 277.5 128.324 277.5 128.6V135C277.5 138.59 274.59 141.5 271 141.5H263.667C263.391 141.5 263.167 141.276 263.167 141C263.167 140.724 263.391 140.5 263.667 140.5H271C274.038 140.5 276.5 138.038 276.5 135V128.6C276.5 128.324 276.724 128.1 277 128.1ZM28.5 141C28.5 140.724 28.7238 140.5 29 140.5H43.6666C43.9428 140.5 44.1666 140.724 44.1666 141C44.1666 141.276 43.9428 141.5 43.6666 141.5H29C28.7238 141.5 28.5 141.276 28.5 141ZM57.8333 141C57.8333 140.724 58.0572 140.5 58.3333 140.5H73C73.2761 140.5 73.5 140.724 73.5 141C73.5 141.276 73.2761 141.5 73 141.5H58.3333C58.0572 141.5 57.8333 141.276 57.8333 141ZM87.1667 141C87.1667 140.724 87.3905 140.5 87.6667 140.5H102.333C102.609 140.5 102.833 140.724 102.833 141C102.833 141.276 102.609 141.5 102.333 141.5H87.6667C87.3905 141.5 87.1667 141.276 87.1667 141ZM116.5 141C116.5 140.724 116.724 140.5 117 140.5H131.667C131.943 140.5 132.167 140.724 132.167 141C132.167 141.276 131.943 141.5 131.667 141.5H117C116.724 141.5 116.5 141.276 116.5 141ZM145.833 141C145.833 140.724 146.057 140.5 146.333 140.5H161C161.276 140.5 161.5 140.724 161.5 141C161.5 141.276 161.276 141.5 161 141.5H146.333C146.057 141.5 145.833 141.276 145.833 141ZM175.167 141C175.167 140.724 175.391 140.5 175.667 140.5H190.333C190.609 140.5 190.833 140.724 190.833 141C190.833 141.276 190.609 141.5 190.333 141.5H175.667C175.391 141.5 175.167 141.276 175.167 141ZM204.5 141C204.5 140.724 204.724 140.5 205 140.5H219.667C219.943 140.5 220.167 140.724 220.167 141C220.167 141.276 219.943 141.5 219.667 141.5H205C204.724 141.5 204.5 141.276 204.5 141ZM233.833 141C233.833 140.724 234.057 140.5 234.333 140.5H249C249.276 140.5 249.5 140.724 249.5 141C249.5 141.276 249.276 141.5 249 141.5H234.333C234.057 141.5 233.833 141.276 233.833 141Z" fill="#1A191D"/>
<path d="M143.763 74.3247L138.548 79.773C138.469 79.8555 138.384 79.9141 138.291 79.9488C138.199 79.9835 138.1 80.0005 137.995 80C137.89 80 137.791 79.9827 137.699 79.948C137.607 79.9133 137.521 79.855 137.442 79.773L132.227 74.3247C132.082 74.1733 132.007 73.984 132 73.7567C131.994 73.5295 132.07 73.3335 132.227 73.169C132.372 73.0039 132.553 72.9178 132.771 72.9106C132.988 72.9035 133.176 72.9827 133.333 73.1484L137.205 77.1933L137.205 62.8255C137.205 62.5916 137.281 62.3954 137.432 62.2369C137.584 62.0784 137.772 61.9995 137.995 62C138.219 62 138.407 62.079 138.558 62.2369C138.71 62.3949 138.786 62.5911 138.785 62.8255L138.785 77.1933L142.657 73.1484C142.802 72.997 142.986 72.9178 143.21 72.9106C143.434 72.9035 143.618 72.9827 143.763 73.1484C143.921 73.2997 144 73.4923 144 73.7262C144 73.9601 143.921 74.1596 143.763 74.3247Z" fill="#1A191D"/>
</svg>
