<svg width="16" height="16" viewBox="0 0 16 16" fill="none" xmlns="http://www.w3.org/2000/svg">
<path d="M12.2083 14.8989C11.3917 15.6905 10.5001 15.5655 9.64193 15.1905C8.73371 14.8073 7.90048 14.7906 6.94227 15.1905C5.74242 15.7071 5.10917 15.5572 4.3926 14.8989C0.326449 10.7078 0.926372 4.32525 5.54245 4.09195C6.66731 4.15027 7.45054 4.70853 8.10879 4.75853C9.092 4.55855 10.0335 3.98363 11.0834 4.05862C12.3416 4.1586 13.2915 4.65854 13.9164 5.55843C11.3167 7.11656 11.9333 10.5411 14.3163 11.4993C13.8414 12.7492 13.2248 13.9907 12.1999 14.9072L12.2083 14.8989ZM8.02547 4.04195C7.90048 2.18385 9.40862 0.650714 11.1417 0.500732C11.3834 2.65046 9.19198 4.25026 8.02547 4.04195Z" fill="#1A191D"/>
</svg>
