<svg width="16" height="16" viewBox="0 0 16 16" fill="none" xmlns="http://www.w3.org/2000/svg">
<g clip-path="url(#clip0_395_185)">
<path d="M2.82857 0H13.1714C14.7429 0 16 1.3037 16 2.93333V13.0667C16 14.6963 14.7429 16 13.1714 16H2.82857C1.25714 16 0 14.6963 0 13.0667V2.93333C0 1.3037 1.25714 0 2.82857 0Z" fill="#FA0F00"/>
<path d="M12.9921 9.1159C12.2286 8.3271 10.1437 8.64846 9.64445 8.70689C8.91032 8.00574 8.41112 7.15852 8.23493 6.86637C8.49921 6.07757 8.6754 5.28878 8.70477 4.44156C8.70477 3.71119 8.41112 2.92239 7.5889 2.92239C7.29525 2.92239 7.03096 3.09768 6.88413 3.3314C6.53175 3.94491 6.67858 5.17192 7.23651 6.42815C6.9135 7.3338 6.61985 8.21024 5.79763 9.75862C4.94604 10.1092 3.15477 10.9272 3.00794 11.8036C2.94921 12.0666 3.03731 12.3295 3.24286 12.534C3.44842 12.7093 3.71271 12.7969 3.97699 12.7969C5.0635 12.7969 6.12064 11.307 6.85477 10.0508C7.47144 9.84626 8.44048 9.55412 9.40953 9.37883C10.5548 10.3721 11.5532 10.5182 12.0818 10.5182C12.7865 10.5182 13.0508 10.2261 13.1389 9.96312C13.2857 9.67098 13.1976 9.34962 12.9921 9.1159ZM12.2579 9.61255C12.2286 9.81705 11.9643 10.0216 11.4945 9.90469C10.9365 9.75862 10.4373 9.49569 9.99683 9.14511C10.3786 9.08668 11.2302 8.99904 11.8468 9.1159C12.0818 9.17433 12.3167 9.3204 12.2579 9.61255ZM7.35397 3.59433C7.4127 3.50669 7.5008 3.44826 7.5889 3.44826C7.85318 3.44826 7.91191 3.76962 7.91191 4.03255C7.88255 4.64606 7.76509 5.25957 7.55953 5.84386C7.11905 4.67527 7.20715 3.85726 7.35397 3.59433ZM7.29525 9.26197C7.53017 8.79454 7.85318 7.97653 7.97064 7.62595C8.23493 8.06417 8.6754 8.59003 8.91032 8.82375C8.91032 8.85297 8.00001 9.02825 7.29525 9.26197ZM5.56271 10.4306C4.88731 11.5407 4.18255 12.2419 3.8008 12.2419C3.74207 12.2419 3.68334 12.2127 3.62461 12.1834C3.53651 12.125 3.50715 12.0374 3.53651 11.9205C3.62461 11.5115 4.3881 10.9564 5.56271 10.4306Z" fill="white"/>
</g>
<defs>
<clipPath id="clip0_395_185">
<rect width="16" height="16" fill="white"/>
</clipPath>
</defs>
</svg>
