<svg width="16" height="16" viewBox="0 0 16 16" fill="none" xmlns="http://www.w3.org/2000/svg">
<g clip-path="url(#clip0_300_2)">
<path d="M15.9924 8.14946C15.9924 7.49394 15.938 7.01559 15.8202 6.51953H8.15942V9.47819H12.6561C12.5655 10.2135 12.0759 11.3208 10.988 12.0648L10.9727 12.1639L13.3949 13.9973L13.5627 14.0137C15.1039 12.6229 15.9924 10.5766 15.9924 8.14946Z" fill="#4285F4"/>
<path d="M8.15942 15.9446C10.3624 15.9446 12.2119 15.2359 13.5627 14.0134L10.988 12.0646C10.299 12.534 9.37424 12.8618 8.15942 12.8618C6.00174 12.8618 4.17042 11.4711 3.51761 9.54883L3.42192 9.55677L0.903299 11.4613L0.870361 11.5508C2.21211 14.1551 4.96817 15.9446 8.15942 15.9446Z" fill="#34A853"/>
<path d="M3.51756 9.54887C3.34531 9.05281 3.24563 8.52127 3.24563 7.97208C3.24563 7.42283 3.34531 6.89135 3.5085 6.39529L3.50394 6.28964L0.95375 4.35449L0.870313 4.39327C0.317313 5.474 0 6.68762 0 7.97208C0 9.25654 0.317313 10.4701 0.870313 11.5508L3.51756 9.54887Z" fill="#FBBC05"/>
<path d="M8.15942 3.08269C9.69155 3.08269 10.725 3.72934 11.3144 4.26974L13.6171 2.07285C12.2029 0.788397 10.3624 0 8.15942 0C4.96817 0 2.21211 1.78937 0.870361 4.39371L3.50855 6.39573C4.17042 4.47347 6.00174 3.08269 8.15942 3.08269Z" fill="#EB4335"/>
</g>
<defs>
<clipPath id="clip0_300_2">
<rect width="16" height="16" fill="white"/>
</clipPath>
</defs>
</svg>
