<svg width="40" height="30" viewBox="0 0 40 30" fill="none" xmlns="http://www.w3.org/2000/svg">
<g clip-path="url(#clip0_287_194)">
<mask id="mask0_287_194" style="mask-type:luminance" maskUnits="userSpaceOnUse" x="0" y="0" width="40" height="30">
<path d="M40 0H0V30H40V0Z" fill="white"/>
</mask>
<g mask="url(#mask0_287_194)">
<path fill-rule="evenodd" clip-rule="evenodd" d="M32.5 0H7.5C3.35786 0 0 3.35786 0 7.5V22.5C0 26.6421 3.35786 30 7.5 30H32.5C36.6421 30 40 26.6421 40 22.5V7.5C40 3.35786 36.6421 0 32.5 0ZM19.2833 20.4929C19.0028 20.7737 18.5485 20.7757 18.2655 20.4976L18.0616 20.2972C17.9326 20.1704 17.7326 20.1544 17.5779 20.248C16.7463 20.7493 15.7473 21 14.5809 21C13.4145 21 12.4155 20.7493 11.5839 20.248C10.7523 19.7413 10.1124 19.0373 9.6642 18.136C9.2214 17.2347 9 16.1893 9 15C9 13.8107 9.2214 12.7653 9.6642 11.864C10.1124 10.9627 10.7523 10.2613 11.5839 9.76C12.4155 9.25333 13.4145 9 14.5809 9C15.7473 9 16.7463 9.25333 17.5779 9.76C18.4149 10.2613 19.0548 10.9627 19.4976 11.864C19.9458 12.7653 20.1699 13.8107 20.1699 15C20.1699 16.1893 19.9458 17.2347 19.4976 18.136C19.4581 18.2164 19.417 18.2953 19.3744 18.3726C19.2083 18.6736 19.2373 19.0548 19.4818 19.2964C19.7585 19.5697 19.76 20.0158 19.4852 20.2909L19.2833 20.4929ZM16.283 16.9029C16.4979 16.6907 16.8435 16.6907 17.0584 16.9029L17.4212 17.2612C17.5105 17.3494 17.6597 17.3241 17.7075 17.208C17.9721 16.5787 18.1044 15.8427 18.1044 15C18.1044 14.1573 17.9721 13.4267 17.7075 12.808C17.4483 12.184 17.0568 11.6987 16.533 11.352C16.0146 11.0053 15.3639 10.8267 14.5809 10.816C13.7979 10.8107 13.1472 10.9813 12.6288 11.328C12.1104 11.6747 11.7189 12.1627 11.4543 12.792C11.1951 13.4213 11.0655 14.1573 11.0655 15C11.0655 15.8427 11.1951 16.576 11.4543 17.2C11.7135 17.8187 12.1023 18.3013 12.6207 18.648C13.1445 18.9947 13.7979 19.1733 14.5809 19.184C15.0059 19.1869 15.392 19.1379 15.739 19.0371C16.1242 18.9252 16.1819 18.4497 15.8958 18.1685C15.6494 17.9263 15.6489 17.5292 15.8947 17.2864L16.283 16.9029ZM24.115 20.56C24.8008 20.8533 25.5703 21 26.4235 21C27.0229 21 27.5953 20.9253 28.1407 20.776C28.6915 20.6267 29.1802 20.4027 29.6068 20.104C30.0334 19.8053 30.3709 19.432 30.6193 18.984C30.8731 18.5307 31 18.0053 31 17.408C31 16.832 30.892 16.3573 30.676 15.984C30.4654 15.6107 30.1954 15.3093 29.866 15.08C29.5366 14.8507 29.1937 14.672 28.8373 14.544C28.4809 14.416 28.1596 14.3147 27.8734 14.24L25.7836 13.664C25.519 13.5947 25.2571 13.5093 24.9979 13.408C24.7441 13.3013 24.5308 13.16 24.358 12.984C24.1852 12.8027 24.0988 12.5707 24.0988 12.288C24.0988 11.9893 24.1987 11.728 24.3985 11.504C24.6037 11.28 24.871 11.1093 25.2004 10.992C25.5352 10.8693 25.897 10.8107 26.2858 10.816C26.6854 10.8267 27.0607 10.9067 27.4117 11.056C27.7681 11.2053 28.0678 11.424 28.3108 11.712C28.3448 11.7507 28.3773 11.7906 28.4083 11.8316C28.7471 12.2801 29.2507 12.6689 29.8047 12.5738C30.4029 12.4712 30.8023 11.8728 30.5257 11.3326C30.3838 11.0553 30.2152 10.8005 30.0199 10.568C29.5987 10.0667 29.0749 9.6853 28.4485 9.42397C27.8221 9.1573 27.1093 9.0213 26.3101 9.01597C25.5217 9.01064 24.8035 9.1333 24.1555 9.38398C23.5129 9.63464 22.9999 10.0133 22.6165 10.52C22.2385 11.0213 22.0495 11.6427 22.0495 12.384C22.0495 12.8907 22.1332 13.3173 22.3006 13.664C22.4734 14.0053 22.6921 14.288 22.9567 14.512C23.2267 14.7307 23.5102 14.904 23.8072 15.032C24.1096 15.1547 24.3904 15.2533 24.6496 15.328L27.6628 16.208C27.8788 16.272 28.0678 16.3493 28.2298 16.44C28.3972 16.5253 28.5322 16.6213 28.6348 16.728C28.7428 16.8347 28.8238 16.9573 28.8778 17.096C28.9318 17.2293 28.9588 17.376 28.9588 17.536C28.9588 17.8933 28.8427 18.1947 28.6105 18.44C28.3837 18.6853 28.0867 18.872 27.7195 19C27.3523 19.128 26.9608 19.192 26.545 19.192C25.843 19.192 25.222 19.0053 24.682 18.632C24.4075 18.4403 24.1807 18.2078 24.0015 17.9346C23.7 17.4744 23.2064 17.1102 22.6624 17.1919C22.0747 17.2801 21.6555 17.8403 21.8867 18.3878C22.0267 18.7194 22.2079 19.0248 22.4302 19.304C22.873 19.848 23.4346 20.2667 24.115 20.56Z" fill="url(#paint0_linear_287_194)"/>
</g>
</g>
<defs>
<linearGradient id="paint0_linear_287_194" x1="0.681483" y1="18.8823" x2="37.4052" y2="5.76218" gradientUnits="userSpaceOnUse">
<stop stop-color="#A18CD1"/>
<stop offset="1" stop-color="#FBC2EB"/>
</linearGradient>
<clipPath id="clip0_287_194">
<rect width="40" height="30" fill="white"/>
</clipPath>
</defs>
</svg>
