<svg width="14" height="14" viewBox="0 0 14 14" fill="none" xmlns="http://www.w3.org/2000/svg">
<path d="M11.3989 5.06562C11.3211 5.1434 11.1952 5.14377 11.1169 5.06646L8.92227 2.89763C8.84337 2.81966 8.843 2.69238 8.92143 2.61395L9.59584 1.93954C9.81945 1.71593 10.0942 1.60413 10.4201 1.60413C10.746 1.60413 11.0205 1.71593 11.2438 1.93954L12.0604 2.75621C12.284 2.97982 12.4007 3.24971 12.4104 3.56588C12.4201 3.88204 12.3132 4.15174 12.0896 4.37496L11.3989 5.06562ZM2.33334 12.25C2.16806 12.25 2.02942 12.194 1.91742 12.082C1.80542 11.97 1.74961 11.8315 1.75 11.6666V10.0187C1.75 9.94093 1.76459 9.86549 1.79375 9.79238C1.82292 9.71926 1.86667 9.65374 1.925 9.59579L7.79191 3.72888C7.87002 3.65078 7.99665 3.65078 8.07476 3.72888L10.2711 5.9252C10.3492 6.00331 10.3492 6.12994 10.2711 6.20805L4.40417 12.075C4.34584 12.1333 4.28031 12.177 4.20759 12.2062C4.13486 12.2354 4.05942 12.25 3.98125 12.25H2.33334Z" fill="#1A191D"/>
</svg>
