<svg width="20" height="20" viewBox="0 0 20 20" fill="none" xmlns="http://www.w3.org/2000/svg">
<rect width="20" height="20" fill="none"/>
<path d="M9.22307 6.67391L6.33911 3.84783C5.98786 3.50362 5.90948 3.10978 6.10396 2.6663C6.29844 2.22283 6.64489 2.00072 7.14329 2H12.8557C13.3549 2 13.7017 2.2221 13.8962 2.6663C14.0907 3.11051 14.0119 3.50435 13.6599 3.84783L10.776 6.67391C10.665 6.78261 10.5449 6.86413 10.4155 6.91848C10.2861 6.97283 10.1474 7 9.99952 7C9.85162 7 9.71297 6.97283 9.58356 6.91848C9.45415 6.86413 9.33399 6.78261 9.22307 6.67391Z" fill="#1A191D"/>
<path d="M10.7769 13.3261L13.6609 16.1522C14.0121 16.4964 14.0905 16.8902 13.896 17.3337C13.7016 17.7772 13.3551 17.9993 12.8567 18L7.14426 18C6.64512 18 6.2983 17.7779 6.10382 17.3337C5.90934 16.8895 5.98809 16.4957 6.34008 16.1522L9.22404 13.3261C9.33496 13.2174 9.45512 13.1359 9.58453 13.0815C9.71394 13.0272 9.85259 13 10.0005 13C10.1484 13 10.287 13.0272 10.4164 13.0815C10.5458 13.1359 10.666 13.2174 10.7769 13.3261Z" fill="#1A191D"/>
</svg>
